<svg width="27" height="29" viewBox="0 0 27 29" fill="none" xmlns="http://www.w3.org/2000/svg">
<path d="M0.395881 5.82607C0.700102 2.44303 3.59156 0 6.98825 0H19.6724C23.1169 0 26.0444 2.50723 26.3546 5.93775C26.5784 8.41255 26.7692 11.4245 26.7692 14.5C26.7692 17.5755 26.5784 20.5874 26.3546 23.0623C26.0444 26.4928 23.1169 29 19.6724 29H6.98825C3.59157 29 0.700102 26.557 0.395881 23.1739C0.180279 20.7764 0 17.7884 0 14.5C0 11.2116 0.180279 8.22364 0.395881 5.82607Z" fill="#EEEEEE"/>
<path d="M16.9286 14.25H16.3929V12.5625C16.3929 10.5984 14.8705 9 13 9C11.1295 9 9.60714 10.5984 9.60714 12.5625V14.25H9.07143C8.47991 14.25 8 14.7539 8 15.375V19.875C8 20.4961 8.47991 21 9.07143 21H16.9286C17.5201 21 18 20.4961 18 19.875V15.375C18 14.7539 17.5201 14.25 16.9286 14.25ZM14.6071 14.25H11.3929V12.5625C11.3929 11.632 12.1138 10.875 13 10.875C13.8862 10.875 14.6071 11.632 14.6071 12.5625V14.25Z" fill="#2C2B29"/>
</svg>
